<svg xmlns="http://www.w3.org/2000/svg" viewBox="0 0 1182 593" role="img" aria-labelledby="title desc">
  <title id="title">LEA logo</title>
  <desc id="desc">The LEA Learn Explore Achieve logo with a coding mark and transparent background.</desc>
  <defs>
    <linearGradient id="lea-ring" x1="78" y1="296" x2="575" y2="296" gradientUnits="userSpaceOnUse">
      <stop offset="0" stop-color="#050505"/>
      <stop offset="0.58" stop-color="#050505"/>
      <stop offset="0.78" stop-color="#8d1ec4"/>
      <stop offset="1" stop-color="#ffffff" stop-opacity="0.12"/>
    </linearGradient>
  </defs>

  <g fill="none" stroke-linecap="round" stroke-linejoin="round">
    <path d="M548 71C465 28 352 26 255 70C136 124 64 236 76 354C89 483 199 572 340 574C420 575 493 545 548 492"
      stroke="url(#lea-ring)" stroke-width="31"/>
    <path d="M548 71C465 28 352 26 255 70C136 124 64 236 76 354C89 483 199 572 340 574C420 575 493 545 548 492"
      stroke="#050505" stroke-width="18" opacity="0.46"/>
  </g>

  <g fill="#050505">
    <path d="M262 181h45v247h-45z"/>
    <path d="M323 181h184v34H323z"/>
    <path d="M488 181h45v247h-45z"/>
    <path d="M307 395h186v34H307z"/>
    <path d="M246 262v45l-74 43 74 43v45l-116-66v-44z"/>
    <path d="M526 262v45l74 43-74 43v45l116-66v-44z"/>
  </g>

  <path d="M326 286h127v48H326z" fill="#8d1ec4"/>

  <g font-family="Arial, Helvetica, sans-serif" font-size="53" font-weight="800" letter-spacing="26">
    <text x="690" y="218" fill="#050505">LEARN</text>
    <text x="690" y="333" fill="#8d1ec4">EXPLORE</text>
    <text x="690" y="448" fill="#050505">ACHIEVE</text>
  </g>
</svg>
